<?xml version="1.0" encoding="iso-8859-1"?>
<!-- Generator: Adobe Illustrator 18.0.0, SVG Export Plug-In . SVG Version: 6.00 Build 0)  -->
<!DOCTYPE svg PUBLIC "-//W3C//DTD SVG 1.1//EN" "http://www.w3.org/Graphics/SVG/1.1/DTD/svg11.dtd">
<svg version="1.1" id="Capa_1" xmlns="http://www.w3.org/2000/svg" xmlns:xlink="http://www.w3.org/1999/xlink" x="0px" y="0px"
	 viewBox="0 0 448.406 448.406" style="enable-background:new 0 0 448.406 448.406;" xml:space="preserve">
<g>
	<path d="M54.7,261.498c12.117,3.938,28.421,6.105,45.909,6.105c26.065,0.001,54.918-4.878,75.582-15.205
		c-4.032-7.588-6.326-16.233-6.326-25.408c0-6.126,1.034-12.013,2.912-17.511c-7.328-8.098-14.3-17.924-20.766-29.379
		c-10.267-18.188-18.301-39-22.991-58.626c-8.707-5.147-17.25-9.202-25.014-11.725c-8.023-2.607-16.323-3.929-24.669-3.929
		c-22.653,0-44.133,9.665-59.146,26.247c9.35,9.576,13.1,23.93,8.791,37.189C24.67,182.53,13.417,192.005,0,194.211
		C3.282,225.267,24.331,251.63,54.7,261.498z"/>
	<path d="M127.588,431.558c25.497,0,49.651-12.295,64.615-32.89c8.269-11.38,15.745-27.788,21.165-45.601
		c-2.72-10.366-4.766-21.003-5.965-31.433c-1.825-15.883-1.631-30.257,0.47-42.819c-7.071-2.233-13.513-5.883-19.012-10.604
		c-4.672,2.58-9.769,4.941-15.287,7.061c-20.71,7.951-46.622,12.33-72.961,12.33h-0.005c-7.117,0-14.093-0.338-20.77-0.983
		c-6.646,6.071-12.361,12.263-16.721,18.263c-18.775,25.842-20.306,59.553-4.691,86.61c5.081-2.533,10.74-3.902,16.487-3.902
		c7.809,0,15.284,2.432,21.617,7.033c11.279,8.193,16.682,22.01,14.747,35.253C116.622,430.995,122.078,431.558,127.588,431.558z"/>
	<path d="M351.876,397.666c6.333-4.602,13.809-7.033,21.617-7.033c5.746,0,11.405,1.369,16.486,3.902
		c15.611-27.057,14.083-60.769-4.69-86.609c-5.023-6.914-11.841-14.083-19.82-21.028c-5.725,0.465-11.646,0.706-17.665,0.706h-0.008
		c-26.341-0.001-52.253-4.381-72.964-12.332c-5.519-2.118-10.611-4.482-15.285-7.063c-8.665,7.44-19.687,12.199-31.78,12.987
		c-1.938,10.873-2.148,23.757-0.494,38.155c3.473,30.225,15.099,63.322,28.93,82.359c14.962,20.594,39.117,32.89,64.614,32.891
		h0.005c5.508,0,10.963-0.563,16.308-1.683C335.195,419.677,340.598,405.861,351.876,397.666z"/>
	<path d="M419.423,169.256c-4.309-13.259-0.558-27.613,8.791-37.189c-15.014-16.582-36.493-26.245-59.146-26.245
		c-8.346,0-16.646,1.321-24.669,3.928c-7.762,2.522-16.305,6.571-25.011,11.717c-4.69,19.629-12.725,40.444-22.993,58.634
		c-6.467,11.454-13.438,21.28-20.766,29.377c1.878,5.5,2.912,11.386,2.912,17.513c0,9.176-2.295,17.822-6.328,25.411
		c20.665,10.325,49.521,15.202,75.585,15.203h0.007c17.483,0,33.783-2.169,45.902-6.106c30.368-9.867,51.418-36.23,54.699-67.285
		C434.989,192.007,423.736,182.532,419.423,169.256z"/>
	<path d="M183.42,191.14c9.965-11.323,24.549-18.488,40.783-18.488c16.234,0,30.818,7.166,40.784,18.49
		c4.84-6.001,9.536-12.983,13.991-20.874c14.955-26.493,25.004-60.104,25.004-83.635c0-31.942-18.582-60.117-47.12-72.829
		c-6.215,11.858-18.712,19.866-32.659,19.866c-13.947,0-26.444-8.009-32.66-19.866c-28.537,12.712-47.119,40.887-47.119,72.829
		c0,23.531,10.048,57.142,25.004,83.635C173.883,178.16,178.58,185.141,183.42,191.14z"/>
	<path d="M258.541,226.99c0-18.934-15.404-34.338-34.338-34.338s-34.337,15.404-34.337,34.338s15.404,34.337,34.337,34.337
		S258.541,245.923,258.541,226.99z"/>
</g>
<g>
</g>
<g>
</g>
<g>
</g>
<g>
</g>
<g>
</g>
<g>
</g>
<g>
</g>
<g>
</g>
<g>
</g>
<g>
</g>
<g>
</g>
<g>
</g>
<g>
</g>
<g>
</g>
<g>
</g>
</svg>
