<?xml version="1.0" encoding="iso-8859-1"?>
<!-- Generator: Adobe Illustrator 18.0.0, SVG Export Plug-In . SVG Version: 6.00 Build 0)  -->
<!DOCTYPE svg PUBLIC "-//W3C//DTD SVG 1.1//EN" "http://www.w3.org/Graphics/SVG/1.1/DTD/svg11.dtd">
<svg version="1.1" id="Capa_1" xmlns="http://www.w3.org/2000/svg" xmlns:xlink="http://www.w3.org/1999/xlink" x="0px" y="0px"
	 viewBox="0 0 477.454 477.454" style="enable-background:new 0 0 477.454 477.454;" xml:space="preserve">
<g>
	<path d="M407.262,29.155c-19.773-16.129-44.348-17.702-71.07-4.544c-10.869,5.353-19.899,12.106-25.714,16.979
		c-8.174-6.003-16.721-8.948-25.914-8.948c-21.56,0-48.465,15.973-79.966,47.474c-42.523,42.523-73.212,119.782-89.134,162.408
		c-2.34,6.264,0.16,11.431,7.4,8.808c42.547-15.415,120.579-46.631,163.449-89.501c27.818-27.818,43.574-52.121,46.831-72.234
		c2.018-12.462-0.675-23.4-8.423-33.823c4.974-4.042,12.252-9.308,20.717-13.42c19.28-9.367,35.828-8.593,49.181,2.3
		c30.25,24.678,56.375,45.991-35.435,216.064c-65.725,121.753-52.676,204.92-52.088,208.401c0.824,4.882,5.057,8.336,9.849,8.336
		c0.553,0,1.113-0.046,1.677-0.141c5.445-0.919,9.115-6.08,8.195-11.525c-0.133-0.785-12.525-79.807,49.967-195.57
		c43.054-79.754,63.324-131.438,65.727-167.582C445.114,63.488,426.525,44.87,407.262,29.155z"/>
	<path d="M366.409,123.487c0.35-15.692-4.003-29.771-12.635-41.229c-0.018,3.455-0.309,6.967-0.887,10.534
		c-3.997,24.688-21.148,51.896-52.432,83.18c-29.207,29.208-72.657,52.174-111.133,70.528c-2.699,1.288-4.402,5.538-4.198,7.288
		c1.298,11.125,4.336,22.859,9.138,35.182c7.078,18.167,16.658,34.125,24.361,45.207c1.583,2.277,3.999,3.527,6.068,0.02
		c13.85-23.475,40.232-65.09,76.378-98.143C342.428,198.234,365.632,158.257,366.409,123.487z"/>
	<path d="M190.455,65.973c35.716-35.715,66.374-53.158,93.713-53.324C273.149,4.353,259.68,0,244.717,0
		c-35.193,0-75.801,23.211-114.342,65.359c-30.42,33.266-68.715,57.29-92.169,72.883c-5.082,3.379-4.185,10.798-0.225,13.362
		c17.676,11.445,44.066,24.915,71.953,29.319c6.522,1.03,9.778-3.348,10.733-5.457C138.085,137.022,161.658,94.771,190.455,65.973z"
		/>
</g>
<g>
</g>
<g>
</g>
<g>
</g>
<g>
</g>
<g>
</g>
<g>
</g>
<g>
</g>
<g>
</g>
<g>
</g>
<g>
</g>
<g>
</g>
<g>
</g>
<g>
</g>
<g>
</g>
<g>
</g>
</svg>
