<?xml version="1.0" encoding="iso-8859-1"?>
<!-- Generator: Adobe Illustrator 18.0.0, SVG Export Plug-In . SVG Version: 6.00 Build 0)  -->
<!DOCTYPE svg PUBLIC "-//W3C//DTD SVG 1.1//EN" "http://www.w3.org/Graphics/SVG/1.1/DTD/svg11.dtd">
<svg version="1.1" id="Capa_1" xmlns="http://www.w3.org/2000/svg" xmlns:xlink="http://www.w3.org/1999/xlink" x="0px" y="0px"
	 viewBox="0 0 490.375 490.375" style="enable-background:new 0 0 490.375 490.375;" xml:space="preserve">
<path d="M431.694,271.324c-12.993-7.502-40.576-17.98-70.68-26.143c30.095-8.163,57.667-18.639,70.656-26.132
	c33.775-19.514,45.348-62.699,25.856-96.452c-19.489-33.776-62.675-45.333-96.46-25.833c-12.984,7.49-35.83,26.113-57.936,48.081
	c7.975-30.136,12.684-59.24,12.684-74.234C315.815,31.613,284.209,0,245.211,0c-38.988,0-70.594,31.613-70.594,70.612
	c0,15.003,4.716,44.135,12.699,74.292c-22.128-21.998-45.004-40.657-58-48.163c-33.769-19.497-76.962-7.919-96.453,25.858
	c-19.506,33.753-7.927,76.938,25.85,96.436c12.994,7.503,40.591,17.987,70.706,26.149c-30.121,8.161-57.726,18.643-70.723,26.142
	c-33.784,19.516-45.363,62.709-25.856,96.461c19.499,33.767,62.708,45.347,96.461,25.833c13.002-7.5,35.891-26.167,58.024-48.175
	c-7.987,30.167-12.708,59.315-12.708,74.328c0,38.988,31.605,70.603,70.594,70.603c38.998,0,70.604-31.615,70.604-70.603
	c0-15.004-4.714-44.131-12.696-74.282c22.116,21.984,44.977,40.629,57.964,48.129c33.783,19.49,76.963,7.92,96.461-25.833
	C477.034,334.009,465.464,290.823,431.694,271.324z M245.188,324.784c-43.954,0-79.587-35.65-79.587-79.597
	c0-43.938,35.633-79.589,79.587-79.589c43.962,0,79.589,35.651,79.589,79.589C324.776,289.134,289.149,324.784,245.188,324.784z"/>
<g>
</g>
<g>
</g>
<g>
</g>
<g>
</g>
<g>
</g>
<g>
</g>
<g>
</g>
<g>
</g>
<g>
</g>
<g>
</g>
<g>
</g>
<g>
</g>
<g>
</g>
<g>
</g>
<g>
</g>
</svg>
