<?xml version="1.0" encoding="iso-8859-1"?>
<!-- Generator: Adobe Illustrator 16.0.0, SVG Export Plug-In . SVG Version: 6.00 Build 0)  -->
<!DOCTYPE svg PUBLIC "-//W3C//DTD SVG 1.1//EN" "http://www.w3.org/Graphics/SVG/1.1/DTD/svg11.dtd">
<svg version="1.1" id="Capa_1" xmlns="http://www.w3.org/2000/svg" xmlns:xlink="http://www.w3.org/1999/xlink" x="0px" y="0px"
	 width="302.172px" height="302.172px" viewBox="0 0 302.172 302.172" style="enable-background:new 0 0 302.172 302.172;"
	 xml:space="preserve">
<g>
	<g>
		<path d="M256.422,247.176c16.373,0,29.536-11.164,39.126-33.171c8.43-19.346,8.813-35.082,1.149-46.784
			c-4.909-7.487-13.022-13.054-24.177-16.735c20.998-6.654,33.166-22.339,20.277-55.122c-12.893-32.806-32.503-36.042-52.418-26.597
			c4.604-8.319,7.224-16.782,6.747-25.019c-0.896-15.462-12.039-27.954-33.119-37.137c-24.503-10.667-43.227-8.313-54.966,6.379
			c-3.691,4.619-6.462,10.317-8.541,16.676c-6.648-21.013-22.333-33.2-55.134-20.303c-32.816,12.901-36.04,32.521-26.58,52.446
			c-7.664-4.235-15.431-6.835-23.04-6.835c-16.373,0-29.539,11.161-39.126,33.171c-8.425,19.338-8.813,35.082-1.147,46.779
			c4.906,7.493,13.023,13.054,24.174,16.73C8.651,158.315-3.517,174,9.374,206.782c12.894,32.804,32.503,36.04,52.418,26.595
			c-4.601,8.321-7.226,16.782-6.75,25.021c0.896,15.461,12.042,27.951,33.119,37.137c10.095,4.396,19.291,6.628,27.322,6.628
			c0.005,0,0.005,0,0.01,0c11.438,0,20.733-4.375,27.628-13.007c3.689-4.619,6.463-10.325,8.541-16.685
			c6.649,21.008,22.334,33.202,55.137,20.304c32.814-12.898,36.04-32.519,26.58-52.443
			C241.048,244.577,248.815,247.171,256.422,247.176L256.422,247.176z M167.333,19.614c4.852-6.077,11.185-9.025,19.355-9.025
			c6.561,0,14.333,1.937,23.089,5.748c17.114,7.457,26.113,16.883,26.761,28.024c1.486,25.546-38.82,58.417-66.062,76.769
			c1.838-3.76,3.687-7.757,5.51-11.941c10.46-24.003,16.047-44.721,12.484-46.274s-14.929,16.65-25.383,40.653
			c-1.352,3.097-2.615,6.141-3.791,9.093C155.247,85.396,151.44,39.508,167.333,19.614z M162.273,126.482
			c-0.202,0.127-0.409,0.262-0.605,0.389c-0.042-0.218-0.089-0.5-0.13-0.728C161.781,126.25,162.03,126.361,162.273,126.482z
			 M14.358,129.118c-5.584-8.521-4.912-20.881,1.999-36.733C24.103,74.6,33.999,65.58,45.758,65.58
			c24.387,0,54.95,36.475,73.247,62.992c-2.899-1.372-5.921-2.752-9.057-4.114C85.945,114,65.228,108.413,63.674,111.976
			c-1.553,3.562,16.65,14.926,40.653,25.383c4.153,1.807,8.192,3.456,12.065,4.953c-12.345,1.944-29.588,4.039-46.657,4.039H69.73
			C40.885,146.345,21.739,140.391,14.358,129.118z M134.845,282.538c-4.852,6.069-11.179,9.021-19.345,9.021c0,0-0.005,0-0.01,0
			c-6.568,0-14.336-1.937-23.092-5.748c-17.111-7.456-26.113-16.886-26.761-28.023c-1.432-24.57,35.802-55.908,62.886-74.602
			c-1.103,2.367-2.206,4.795-3.298,7.307c-10.455,24.006-16.044,44.724-12.479,46.276c3.562,1.554,14.926-16.652,25.38-40.653
			c1.518-3.49,2.923-6.892,4.221-10.19C146.553,212.571,151.456,261.758,134.845,282.538z M174.074,209.521
			c-2.444,0.963-9.683-11.619-16.166-28.102c-0.735-1.88-1.429-3.729-2.081-5.53c-0.187,0.042-0.373,0.083-0.564,0.13
			c-0.632,2.868-1.352,6.271-2.105,10.19c-0.552-3.625-1.103-6.877-1.61-9.688c-0.562,0.036-1.113,0.124-1.686,0.124
			c-1.325,0-2.62-0.207-3.92-0.403c-2.216-0.342-4.401-0.865-6.496-1.776c-1.851-0.808-3.537-1.858-5.121-3.034
			c-1.129-0.839-2.222-1.72-3.198-2.719c-2.159,1.393-4.569,2.993-7.185,4.77c1.962-2.678,3.705-5.132,5.196-7.271
			c-0.562-0.74-1.119-1.476-1.598-2.284c-1.631,0.689-3.314,1.378-5.041,2.062c-16.479,6.483-30.621,9.75-31.586,7.307
			c-0.96-2.444,11.623-9.679,28.102-16.161c1.755-0.688,3.479-1.336,5.17-1.952c-0.021-0.124-0.021-0.254-0.041-0.378
			c-2.434-0.528-5.191-1.093-8.241-1.678c2.91-0.445,5.6-0.886,7.995-1.305c-0.111-2.211-0.031-4.42,0.425-6.6
			c0.323-1.538,0.818-3.042,1.421-4.523c0.081-0.191,0.106-0.394,0.192-0.583c0.09-0.207,0.217-0.388,0.313-0.595
			c0.942-2.025,2.115-3.892,3.493-5.566c0.722-0.875,1.507-1.681,2.327-2.449c0.334-0.313,0.676-0.622,1.025-0.912
			c-0.005-0.013-0.016-0.023-0.021-0.034c-1.311-2.015-2.781-4.23-4.407-6.623c2.449,1.794,4.707,3.399,6.711,4.806
			c0.5-0.36,0.971-0.738,1.497-1.062c-0.816-1.908-1.634-3.892-2.439-5.939c-6.48-16.479-9.75-30.621-7.307-31.587
			c2.444-0.963,9.681,11.625,16.161,28.104c0.8,2.04,1.553,4.047,2.252,5.991c0.601-0.116,1.214-0.132,1.82-0.212
			c0.515-2.395,1.071-5.105,1.649-8.101c0.435,2.843,0.864,5.473,1.276,7.827c0.044,0.254,0.085,0.482,0.134,0.73
			c1.453,0.034,2.89,0.176,4.306,0.445c1.9,0.362,3.76,0.894,5.562,1.678c2.082,0.906,3.904,2.115,5.613,3.451
			c1.533,1.204,2.884,2.561,4.086,4.039c0.315-0.199,0.646-0.417,0.968-0.629c2.18-1.411,4.619-3.024,7.265-4.826
			c-1.993,2.727-3.764,5.217-5.266,7.381c1.849-0.79,3.77-1.58,5.748-2.361c16.477-6.478,30.618-9.751,31.581-7.307
			s-11.62,9.683-28.102,16.164c-2.051,0.805-4.065,1.564-6.027,2.263c0.145,0.733,0.196,1.458,0.274,2.19
			c2.796,0.614,6.084,1.305,9.838,2.022c-3.588,0.549-6.804,1.087-9.6,1.59c-0.238,0.041-0.487,0.083-0.715,0.124
			c-0.005,1.093-0.191,2.186-0.337,3.283c-0.315,2.346-0.833,4.681-1.827,6.959c-0.715,1.646-1.642,3.154-2.657,4.588
			c-0.378,0.544-0.745,1.088-1.165,1.601c-0.145,0.165-0.279,0.336-0.424,0.507c-0.415,0.445-0.829,0.881-1.274,1.3
			c-0.181,0.182-0.347,0.368-0.528,0.539c1.61,2.521,3.547,5.463,5.759,8.714c-3.335-2.438-6.323-4.546-8.793-6.25
			c-0.104,0.078-0.202,0.166-0.306,0.233c0.787,1.849,1.574,3.765,2.352,5.743C173.246,194.421,176.519,208.563,174.074,209.521z
			 M181.143,170.592c3.221,1.543,6.597,3.097,10.118,4.629c24.006,10.455,44.724,16.047,46.276,12.484
			c1.554-3.567-16.652-14.929-40.653-25.383c-2.465-1.077-4.883-2.087-7.265-3.05c11.972-1.766,27.438-3.475,42.833-3.475
			c28.837,0,47.986,5.96,55.37,17.232c5.587,8.519,4.914,20.884-1.999,36.733c-7.746,17.787-17.637,26.808-29.401,26.808l0,0
			C231.106,236.567,199.132,197.259,181.143,170.592z"/>
		<path d="M164.857,164.891c0.575-0.601,1.113-1.237,1.62-1.911c0.959-1.273,1.808-2.63,2.465-4.132
			c0.928-2.123,1.373-4.318,1.559-6.504c0.021-0.196,0.058-0.394,0.068-0.59c0.093-1.678,0.057-3.34-0.244-4.964
			c-0.083-0.44-0.264-0.856-0.367-1.292c-0.29-1.152-0.658-2.275-1.14-3.357c-0.528-1.188-1.154-2.322-1.9-3.399
			c-0.43-0.624-0.9-1.225-1.403-1.802c-0.678-0.779-1.434-1.484-2.227-2.165c-1.522-1.292-3.185-2.459-5.101-3.296
			c-1.651-0.717-3.37-1.137-5.113-1.411c-0.541-0.085-1.093-0.127-1.644-0.171c-0.516-0.036-1.021-0.158-1.543-0.158
			c-0.813,0-1.608,0.085-2.398,0.173c-0.505,0.06-0.997,0.14-1.483,0.233c-2.006,0.383-3.915,1.051-5.691,1.973
			c-0.391,0.207-0.779,0.419-1.16,0.647c-1.126,0.678-2.196,1.437-3.177,2.322c-0.026,0.028-0.049,0.054-0.081,0.08
			c-0.486,0.44-0.937,0.922-1.377,1.406c-1.507,1.654-2.786,3.542-3.713,5.667c-0.663,1.527-1.077,3.107-1.362,4.705
			c-0.233,1.302-0.344,2.612-0.324,3.932c0.016,0.845,0.085,1.688,0.202,2.522c0.127,0.911,0.354,1.812,0.603,2.708
			c0.192,0.684,0.318,1.377,0.583,2.045c0.484,1.223,1.087,2.383,1.771,3.47c0.039,0.057,0.06,0.13,0.096,0.187
			c0.95,1.476,2.133,2.76,3.41,3.94c0.355,0.331,0.728,0.637,1.103,0.938c1.427,1.144,2.954,2.169,4.671,2.92
			c1.962,0.854,4.016,1.284,6.105,1.513c0.73,0.077,1.452,0.228,2.192,0.228c0.241,0,0.469-0.047,0.702-0.058
			c1.198-0.041,2.369-0.196,3.521-0.435c0.859-0.176,1.703-0.394,2.526-0.679c1.14-0.393,2.237-0.891,3.283-1.465
			c0.803-0.445,1.574-0.938,2.31-1.48c0.87-0.643,1.678-1.347,2.438-2.123C164.718,165.036,164.79,164.968,164.857,164.891z"/>
	</g>
</g>
<g>
</g>
<g>
</g>
<g>
</g>
<g>
</g>
<g>
</g>
<g>
</g>
<g>
</g>
<g>
</g>
<g>
</g>
<g>
</g>
<g>
</g>
<g>
</g>
<g>
</g>
<g>
</g>
<g>
</g>
</svg>
