<?xml version="1.0" encoding="iso-8859-1"?>
<!-- Generator: Adobe Illustrator 18.0.0, SVG Export Plug-In . SVG Version: 6.00 Build 0)  -->
<!DOCTYPE svg PUBLIC "-//W3C//DTD SVG 1.1//EN" "http://www.w3.org/Graphics/SVG/1.1/DTD/svg11.dtd">
<svg version="1.1" id="Capa_1" xmlns="http://www.w3.org/2000/svg" xmlns:xlink="http://www.w3.org/1999/xlink" x="0px" y="0px"
	 viewBox="0 0 476.122 476.122" style="enable-background:new 0 0 476.122 476.122;" xml:space="preserve">
<g>
	<path d="M238.061,146.989c-50.218,0-91.072,40.855-91.072,91.072c0,50.218,40.855,91.073,91.072,91.073
		c50.218,0,91.072-40.855,91.072-91.073C329.133,187.845,288.279,146.99,238.061,146.989z"/>
	<path d="M425.697,187.633c-12.932,0-49.025,1.301-83.987,7.136c28.942-20.39,55.567-44.606,64.689-53.727
		c19.692-19.693,19.692-51.623-0.003-71.317c-19.692-19.692-51.622-19.692-71.317,0c-9.143,9.143-33.744,35.585-54.34,64.433
		c6.048-34.882,7.75-70.832,7.75-83.73C288.488,22.577,265.913,0,238.061,0c-27.85,0-50.429,22.577-50.429,50.428
		c0,12.93,1.301,49.02,7.135,83.979c-20.389-28.94-44.602-55.562-53.723-64.683c-19.694-19.691-51.623-19.694-71.318,0
		c-19.693,19.694-19.693,51.625,0,71.317c9.145,9.143,35.586,33.745,64.434,54.341c-34.883-6.047-70.832-7.75-83.732-7.75
		C22.579,187.633,0,210.21,0,238.061c0,27.85,22.579,50.428,50.427,50.428c12.932,0,49.024-1.301,83.986-7.135
		c-28.941,20.389-55.565,44.604-64.688,53.725c-19.693,19.692-19.693,51.622,0,71.316c19.695,19.693,51.624,19.693,71.318,0
		c9.143-9.143,33.742-35.582,54.338-64.427c-6.047,34.881-7.75,70.828-7.75,83.727c0,27.852,22.579,50.429,50.429,50.429
		c27.853,0,50.428-22.578,50.428-50.429c0-12.931-1.301-49.025-7.136-83.987c20.39,28.942,44.608,55.567,53.729,64.689
		c19.692,19.691,51.622,19.693,71.317-0.001c19.692-19.693,19.692-51.623,0-71.316c-9.143-9.143-35.585-33.744-64.432-54.34
		c34.882,6.047,70.829,7.75,83.729,7.749c27.849,0,50.426-22.576,50.426-50.428C476.122,210.21,453.545,187.633,425.697,187.633z
		 M238.061,349.134c-61.245,0-111.072-49.827-111.072-111.073s49.827-111.072,111.072-111.072
		c61.245,0.001,111.072,49.828,111.072,111.072C349.133,299.307,299.306,349.134,238.061,349.134z"/>
</g>
<g>
</g>
<g>
</g>
<g>
</g>
<g>
</g>
<g>
</g>
<g>
</g>
<g>
</g>
<g>
</g>
<g>
</g>
<g>
</g>
<g>
</g>
<g>
</g>
<g>
</g>
<g>
</g>
<g>
</g>
</svg>
