<?xml version="1.0" encoding="iso-8859-1"?>
<!-- Generator: Adobe Illustrator 18.0.0, SVG Export Plug-In . SVG Version: 6.00 Build 0)  -->
<!DOCTYPE svg PUBLIC "-//W3C//DTD SVG 1.1//EN" "http://www.w3.org/Graphics/SVG/1.1/DTD/svg11.dtd">
<svg version="1.1" id="Capa_1" xmlns="http://www.w3.org/2000/svg" xmlns:xlink="http://www.w3.org/1999/xlink" x="0px" y="0px"
	 viewBox="0 0 484.862 484.862" style="enable-background:new 0 0 484.862 484.862;" xml:space="preserve">
<g>
	<path d="M245.018,368.862c-0.524,0-1.048-0.059-1.561-0.176c-2.513-0.575-40.24-9.264-77.636-20.744v21.332
		c0,38.852,29.078,71.019,66.61,75.936v29.652c0,5.523,4.477,10,10,10c5.523,0,10-4.477,10-10V445.21
		c37.532-4.918,66.61-37.084,66.61-75.936v-20.794c-35.291,11.182-70.041,19.622-72.379,20.188
		C246.121,368.796,245.57,368.862,245.018,368.862z"/>
	<path d="M206.229,198.107c-4.031-11.046-11.458-28.409-23.788-47.704c-18.438-28.854-51.849-67.88-107.324-93.097
		c-0.801,0.681-1.575,1.348-2.312,1.997C58.958,71.51,33.196,95.978,26.484,102.37c-1.785,9.672-8.792,48.978-8.792,69.847
		c0,1.146,0.032,2.348,0.079,3.576C82.297,163.841,172.69,187.982,206.229,198.107z"/>
	<path d="M169.948,228.633c10.56-7.906,20.481-13.955,28.263-18.248c-35.488-10.35-120.378-31.896-178.871-20.649
		c-0.114,0.022-0.227,0.032-0.34,0.048c2.993,23.723,10.25,52.549,12.257,60.276c8.328,7.467,48.771,43.283,76.368,59.855
		C117.594,279.8,139.124,251.71,169.948,228.633z"/>
	<path d="M194.55,143.355c16.649,26.177,24.695,48.626,27.75,58.507h13.718V0c-27.744,0.196-72.922,1.504-82.83,1.8
		c-7.809,5.089-41.96,27.501-65.889,45.771C142.292,74.325,175.781,113.847,194.55,143.355z"/>
	<path d="M457.569,104.237c-6.1-6.404-31.283-32.653-47.134-46.343c-54.711,25.232-87.754,63.878-106.051,92.509
		c-12.331,19.295-19.757,36.656-23.789,47.704c33.2-10.021,122.111-33.784,186.491-22.674c0.049-1.104,0.083-2.187,0.083-3.217
		C467.17,152.28,459.43,113.317,457.569,104.237z"/>
	<path d="M288.61,210.383c7.782,4.293,17.704,10.343,28.266,18.25c30.47,22.811,51.857,50.523,61.974,80.246
		c28.08-17.606,64.886-52.865,72.025-59.801c2.231-7.116,11.083-36.142,14.72-59.682
		C407.138,178.948,323.707,200.141,288.61,210.383z"/>
	<path d="M268.348,215.862H218.48c-9.908,4.444-77.605,36.81-97.802,99.157c-0.167,0.516-0.393,0.994-0.66,1.44
		c37.649,17.39,113.008,35.405,124.958,38.206c11.773-2.91,85.266-21.429,121.475-38.917c-0.108-0.238-0.221-0.474-0.304-0.729
		C345.906,252.539,278.267,220.295,268.348,215.862z"/>
	<path d="M292.274,143.355c18.605-29.25,51.675-68.341,105.815-95.081c-24.298-17.479-62.621-39.302-70.17-43.563
		c-8.46-0.694-50.453-4.054-77.9-4.647v201.796h14.506C267.578,191.98,275.625,169.532,292.274,143.355z"/>
</g>
<g>
</g>
<g>
</g>
<g>
</g>
<g>
</g>
<g>
</g>
<g>
</g>
<g>
</g>
<g>
</g>
<g>
</g>
<g>
</g>
<g>
</g>
<g>
</g>
<g>
</g>
<g>
</g>
<g>
</g>
</svg>
