<?xml version="1.0" encoding="iso-8859-1"?>
<!-- Generator: Adobe Illustrator 19.0.0, SVG Export Plug-In . SVG Version: 6.00 Build 0)  -->
<svg version="1.1" id="Capa_1" xmlns="http://www.w3.org/2000/svg" xmlns:xlink="http://www.w3.org/1999/xlink" x="0px" y="0px"
	 viewBox="0 0 512 512" style="enable-background:new 0 0 512 512;" xml:space="preserve">
<g>
	<g>
		<g>
			<path d="M510.391,195.816c-4.303-13.242-16.08-21.798-30.003-21.798H343.914c-7.191,0-13.516-4.596-15.739-11.434L286.003,32.789
				C281.7,19.546,269.923,10.99,256,10.99c-13.923,0-25.701,8.556-30.003,21.798l-42.173,129.794
				c-2.223,6.839-8.547,11.435-15.739,11.435H31.611c-13.924,0-25.7,8.556-30.003,21.798s0.196,27.087,11.46,35.27l110.409,80.218
				c5.818,4.227,8.233,11.662,6.012,18.502L87.317,459.601c-4.303,13.242,0.196,27.087,11.46,35.271
				c11.264,8.184,25.821,8.184,37.086,0l110.409-80.217c5.818-4.229,13.636-4.229,19.455,0l110.409,80.217
				c5.632,4.092,12.087,6.138,18.543,6.138c6.456,0,12.911-2.046,18.544-6.139c11.264-8.184,15.763-22.028,11.46-35.271
				l-42.174-129.793c-2.222-6.839,0.194-14.275,6.012-18.502l110.409-80.218C510.195,222.903,514.694,209.059,510.391,195.816z
				 M490.114,218.953L379.705,299.17c-11.091,8.058-15.697,22.232-11.46,35.271l42.173,129.794
				c2.739,8.431-1.31,15.086-6.012,18.502c-4.702,3.417-12.282,5.211-19.455,0l-110.409-80.218
				c-5.546-4.029-12.044-6.044-18.543-6.044c-6.498,0-12.998,2.015-18.543,6.044l-110.409,80.217
				c-7.172,5.211-14.752,3.417-19.455,0c-4.703-3.417-8.75-10.071-6.012-18.502l42.173-129.795
				c4.237-13.039-0.37-27.213-11.46-35.27l-110.41-80.216c-7.172-5.211-7.807-12.974-6.012-18.502
				c1.796-5.528,6.874-11.435,15.738-11.435h136.473c13.709,0,25.767-8.76,30.003-21.798L240.26,37.423
				c2.74-8.43,9.926-11.435,15.739-11.435c5.813,0,12.999,3.004,15.739,11.435l42.173,129.795
				c4.237,13.038,16.294,21.798,30.003,21.798h136.473c8.864,0,13.942,5.907,15.738,11.435
				C497.922,205.979,497.286,213.742,490.114,218.953z"/>
			
				<rect x="189.24" y="372.853" transform="matrix(-0.5878 -0.809 0.809 -0.5878 -19.6828 810.8911)" width="14.998" height="75.214"/>
			
				<rect x="366.267" y="363.567" transform="matrix(-0.9511 0.309 -0.309 -0.9511 855.3416 680.7303)" width="14.999" height="89.057"/>
			<path d="M212.793,192.124l-11.864-9.177c-2.598,3.358-5.685,6.287-9.176,8.703l8.537,12.332
				C205.048,200.688,209.255,196.7,212.793,192.124z"/>
			<path d="M221.863,174.944l2.491-7.659l-14.264-4.639l-2.491,7.66c-0.607,1.87-1.35,3.708-2.207,5.461l13.478,6.581
				C220.033,179.968,221.039,177.477,221.863,174.944z"/>
			<rect x="226.901" y="66.527" transform="matrix(0.951 0.3092 -0.3092 0.951 46.15 -66.9826)" width="14.999" height="91.164"/>
			
				<rect x="48.091" y="246.88" transform="matrix(-0.8098 -0.5867 0.5867 -0.8098 32.282 519.2241)" width="104.422" height="14.999"/>
			<rect x="423.489" y="199.016" width="14.999" height="14.999"/>
			<rect x="343.915" y="199.016" width="69.575" height="14.999"/>
			<rect x="448.487" y="199.016" width="14.999" height="14.999"/>
			<path d="M255.999,244.943c-17.603,0-31.923,14.321-31.923,31.923c0,17.602,14.32,31.923,31.923,31.923
				s31.923-14.32,31.923-31.923C287.922,259.263,273.602,244.943,255.999,244.943z M255.999,293.79
				c-9.332,0-16.924-7.591-16.924-16.924c0-9.332,7.591-16.924,16.924-16.924c9.332,0,16.924,7.592,16.924,16.924
				C272.923,286.197,265.332,293.79,255.999,293.79z"/>
			<path d="M214.502,276.867h-14.999c0,20.724,11.318,39.751,29.539,49.66l7.165-13.177
				C222.82,306.069,214.502,292.09,214.502,276.867z"/>
			<path d="M297.152,238.16c-3.965-4.214-8.527-7.781-13.563-10.604l-7.333,13.084c3.701,2.075,7.057,4.699,9.973,7.797
				L297.152,238.16z"/>
			<path d="M255.999,235.37c4.271,0,8.478,0.645,12.506,1.916l4.514-14.304c-5.49-1.732-11.216-2.611-17.02-2.611V235.37z"/>
			<path d="M297.496,276.867c0,9.22-2.958,17.948-8.555,25.24l11.897,9.132c7.625-9.934,11.656-21.82,11.656-34.372
				c0-10.471-2.888-20.698-8.351-29.576l-12.773,7.861C295.378,261.665,297.497,269.173,297.496,276.867z"/>
			
				<rect x="133.69" y="233.171" transform="matrix(-0.9537 -0.3007 0.3007 -0.9537 203.4724 512.6578)" width="14.999" height="14.999"/>
			
				<rect x="181.357" y="248.198" transform="matrix(0.9537 0.3007 -0.3007 0.9537 85.6306 -44.9556)" width="14.999" height="14.999"/>
			
				<rect x="109.834" y="225.65" transform="matrix(0.9537 0.3007 -0.3007 0.9537 75.5399 -24.4921)" width="14.999" height="14.999"/>
			
				<rect x="157.533" y="240.678" transform="matrix(0.9537 0.3007 -0.3007 0.9537 82.2656 -38.1396)" width="14.999" height="14.999"/>
			<rect x="248.492" y="173.977" width="14.999" height="14.999"/>
			<rect x="248.502" y="198.976" width="14.999" height="14.999"/>
			<rect x="248.492" y="123.981" width="14.999" height="14.999"/>
			<rect x="248.492" y="148.979" width="14.999" height="14.999"/>
			
				<rect x="387.163" y="225.654" transform="matrix(-0.3007 -0.9537 0.9537 -0.3007 290.9758 679.6591)" width="14.999" height="14.999"/>
			
				<rect x="339.463" y="240.688" transform="matrix(0.3007 0.9537 -0.9537 0.3007 479.3308 -157.3473)" width="14.999" height="14.999"/>
			
				<rect x="363.319" y="233.181" transform="matrix(-0.3007 -0.9537 0.9537 -0.3007 252.785 666.7092)" width="14.999" height="14.999"/>
			
				<rect x="315.631" y="248.195" transform="matrix(0.3007 0.9537 -0.9537 0.3007 469.8226 -129.3698)" width="14.999" height="14.999"/>
			
				<rect x="318.366" y="367.436" transform="matrix(0.8145 -0.5802 0.5802 0.8145 -157.0796 258.6209)" width="14.999" height="14.999"/>
			
				<rect x="332.854" y="387.806" transform="matrix(-0.5802 -0.8144 0.8144 -0.5802 215.882 901.8745)" width="14.998" height="14.998"/>
			
				<rect x="303.856" y="347.073" transform="matrix(0.8145 -0.5802 0.5802 0.8145 -147.9571 246.4246)" width="14.999" height="14.999"/>
			
				<rect x="289.348" y="326.671" transform="matrix(0.8144 -0.5803 0.5803 0.8144 -138.8253 234.2814)" width="14.999" height="14.999"/>
			
				<rect x="207.631" y="326.694" transform="matrix(0.8144 0.5803 -0.5803 0.8144 233.8624 -62.8149)" width="14.999" height="14.999"/>
			
				<rect x="164.154" y="387.785" transform="matrix(0.8145 0.5802 -0.5802 0.8145 261.183 -26.2592)" width="14.999" height="14.999"/>
			
				<rect x="193.135" y="347.046" transform="matrix(-0.8145 -0.5802 0.5802 -0.8145 158.3451 759.7234)" width="14.999" height="14.999"/>
			
				<rect x="178.664" y="367.426" transform="matrix(0.8145 0.5802 -0.5802 0.8145 252.0642 -38.4545)" width="14.999" height="14.999"/>
		</g>
	</g>
</g>
<g>
</g>
<g>
</g>
<g>
</g>
<g>
</g>
<g>
</g>
<g>
</g>
<g>
</g>
<g>
</g>
<g>
</g>
<g>
</g>
<g>
</g>
<g>
</g>
<g>
</g>
<g>
</g>
<g>
</g>
</svg>
