<?xml version="1.0" encoding="iso-8859-1"?>
<!-- Generator: Adobe Illustrator 19.0.0, SVG Export Plug-In . SVG Version: 6.00 Build 0)  -->
<svg version="1.1" id="Capa_1" xmlns="http://www.w3.org/2000/svg" xmlns:xlink="http://www.w3.org/1999/xlink" x="0px" y="0px"
	 viewBox="0 0 512.001 512.001" style="enable-background:new 0 0 512.001 512.001;" xml:space="preserve">
<path style="fill:#FF781D;" d="M257.516,230.355c-52.422-52.422-137.908-53.044-190.953,0c-52.83,52.83-52.83,138.122,0,190.953
	l119.345-76.912L257.516,230.355z"/>
<path style="fill:#994C0F;" d="M215.082,272.789c-29.402-29.402-76.684-29.4-106.085,0c-29.279,29.279-29.279,76.806,0,106.085
	l76.248-33.815L215.082,272.789z"/>
<path style="fill:#E26B1B;" d="M304.581,367.572l-99.284-84.996L24.129,463.742c64.345,64.345,169.042,64.345,233.386,0
	C283.726,437.531,300.002,404.286,304.581,367.572z"/>
<path style="fill:#FF781D;" d="M487.871,55.588L432.283,0L303.981,64.651L423.22,183.89L487.871,55.588z"/>
<polygon style="fill:#E26B1B;" points="423.22,183.89 363.6,124.271 460.077,27.794 487.871,55.588 "/>
<path style="fill:#FF8C2E;" d="M427.251,209.138c-17.609,17.609-46.04,17.61-63.651,0l-61.953-19.519l-0.848-2.547l-22.067-62.801
	c-17.61-17.61-17.609-46.042,0-63.651c17.61-17.61,46.04-17.61,63.651,0l84.868,84.868
	C444.861,163.098,444.861,191.528,427.251,209.138z"/>
<g>
	<path style="fill:#FF781D;" d="M301.647,189.619l-0.848-2.547l84.018-84.018l42.433,42.433c17.61,17.61,17.61,46.04,0,63.651
		c-17.609,17.609-46.04,17.61-63.651,0L301.647,189.619z"/>
	<path style="fill:#FF781D;" d="M384.818,294.006c-17.609,17.609-46.04,17.61-63.651,0l-84.868-42.433l-42.433-84.868
		c-17.61-17.61-17.609-46.042,0-63.651c17.61-17.61,46.04-17.61,63.651,0l127.301,127.302
		C402.428,247.966,402.428,276.396,384.818,294.006z"/>
</g>
<path style="fill:#E26B1B;" d="M384.818,294.006c-17.609,17.609-46.04,17.61-63.651,0l-84.868-42.433l84.868-84.868l63.651,63.651
	C402.428,247.966,402.428,276.396,384.818,294.006z"/>
<path style="fill:#FF8C2E;" d="M342.383,378.874c-17.609,17.609-46.04,17.61-63.651,0L108.997,209.138
	c-17.61-17.61-17.609-46.042,0-63.651c17.61-17.61,46.04-17.61,63.651,0l169.736,169.736
	C359.994,332.833,359.994,361.264,342.383,378.874z"/>
<path style="fill:#FF781D;" d="M342.383,378.874c-17.609,17.609-46.04,17.61-63.651,0l-84.868-84.868l63.651-63.651l84.868,84.868
	C359.994,332.833,359.994,361.264,342.383,378.874z"/>
<g>
</g>
<g>
</g>
<g>
</g>
<g>
</g>
<g>
</g>
<g>
</g>
<g>
</g>
<g>
</g>
<g>
</g>
<g>
</g>
<g>
</g>
<g>
</g>
<g>
</g>
<g>
</g>
<g>
</g>
</svg>
