<svg viewBox="0 0 512 512.0003" xmlns="http://www.w3.org/2000/svg"><path d="m439 73v30h-30zm0 0" fill="#73bcff"/><path d="m10.605469 352.898438-10.605469 10.609374 31.820312 31.820313c17.394532 17.394531 40.941407 24.394531 63.640626 21.210937-3.183594 22.699219 3.816406 46.246094 21.210937 63.640626l31.820313 31.820312 10.609374-10.605469c38.394532-38.398437 64.960938-127.332031 21.898438-170.394531s-131.996094-16.496094-170.394531 21.898438zm0 0" fill="#e2e2e7"/><path d="m95.460938 416.539062 85.539062-85.539062c43.0625 43.0625 16.496094 131.996094-21.902344 170.394531l-10.605468 10.605469-31.820313-31.820312c-17.394531-17.394532-24.394531-40.941407-21.210937-63.640626zm0 0" fill="#d3d3d8"/><path d="m335.855469 16.621094 79.761719 79.761718 79.550781 79.972657c-11.457031 30.125-29.910157 61.308593-59.609375 91.003906-109.460938 109.460937-260.921875 89.945313-267.289063 89.097656l-11.242187-1.484375-1.484375-11.242187c-.847657-6.363281-20.363281-157.828125 89.097656-267.289063 29.910156-29.910156 61.09375-48.363281 91.214844-59.820312zm0 0" fill="#73bcff"/><path d="m415.617188 96.382812 79.550781 79.972657c-11.457031 30.125-29.910157 61.308593-59.609375 91.003906-109.460938 109.460937-260.921875 89.945313-267.289063 89.097656l-11.242187-1.484375zm0 0" fill="#3aaaff"/><path d="m340.945312 157.050781c-1.90625-.210937-47.304687-2.332031-75.09375 25.457031-27.789062 27.789063-25.667968 73.1875-25.457031 75.09375l.636719 13.363282 13.363281.636718c1.910157.214844 47.308594 2.335938 75.097657-25.453124 27.789062-27.789063 25.667968-73.1875 25.453124-75.097657l-.632812-13.363281zm0 0" fill="#9ed0ff"/><path d="m241.03125 270.96875 113.28125-113.28125.632812 13.363281c.214844 1.910157 2.335938 47.308594-25.453124 75.097657-27.789063 27.789062-73.1875 25.667968-75.097657 25.453124zm0 0" fill="#73bcff"/><path d="m500.46875 11.53125 2.546875 7.210938c1.058594 3.605468 17.605469 56.640624 2.96875 123.039062-2.546875 11.027344-6.152344 22.695312-10.816406 34.578125-6.578125 1.484375-13.367188 2.757813-20.578125 3.179687-38.183594 2.121094-75.519532-12.304687-102.671875-39.457031-27.152344-27.152343-41.578125-64.488281-39.457031-102.671875.425781-7.210937 2.121093-14 3.394531-20.789062 11.667969-4.453125 23.332031-8.058594 34.363281-10.605469 66.398438-14.636719 119.429688 1.90625 123.039062 2.96875zm0 0" fill="#e2e2e7"/><path d="m500.46875 11.53125 2.546875 7.210938c1.058594 3.605468 17.605469 56.640624 2.96875 123.039062-2.546875 11.027344-6.152344 22.695312-10.816406 34.578125-6.578125 1.484375-13.367188 2.757813-20.578125 3.179687-38.183594 2.121094-75.519532-12.304687-102.671875-39.457031zm0 0" fill="#d3d3d8"/><path d="m409 73h30v30h-30zm0 0" fill="#68544f"/><path d="m439 73v30h-30zm0 0" fill="#53433f"/></svg>