<?xml version="1.0" encoding="iso-8859-1"?>
<!-- Generator: Adobe Illustrator 19.0.0, SVG Export Plug-In . SVG Version: 6.00 Build 0)  -->
<svg version="1.1" id="Capa_1" xmlns="http://www.w3.org/2000/svg" xmlns:xlink="http://www.w3.org/1999/xlink" x="0px" y="0px"
	 viewBox="0 0 512 512" style="enable-background:new 0 0 512 512;" xml:space="preserve">
<path style="fill:#FEDB41;" d="M306.18,310.122C185.685,248.037,185.729,97.674,185.744,18.047v-3.061
	c0-6.311-3.953-11.948-9.884-14.101c-5.916-2.123-12.578-0.352-16.635,4.495L95.83,81.462l-0.051,0.06L32.332,5.381
	c-4.056-4.847-10.719-6.618-16.635-4.495c-5.93,2.152-9.883,7.79-9.883,14.101c0,209.773,133.117,347.572,264.594,373.168
	c0.967,0.19,1.933,0.278,2.885,0.278c7.028,0,13.31-4.964,14.701-12.124l8.5-15.864l16.144-30.129
	C316.43,322.949,313.546,313.915,306.18,310.122z"/>
<path style="fill:#FFCC33;" d="M95.83,81.462l-0.051,0.06L32.332,5.381c-4.056-4.847-10.719-6.618-16.635-4.495
	c-5.93,2.152-9.883,7.79-9.883,14.101c0,209.773,133.117,347.572,264.594,373.168c0.967,0.19,1.933,0.278,2.885,0.278
	c7.028,0,13.31-4.964,14.701-12.124l8.5-15.864C202.739,318.787,118.588,219.955,95.83,81.462z"/>
<path style="fill:#FEA832;" d="M501.668,395.046l-57.279-55.779l13.495-78.569c1.201-5.698-1.199-11.396-5.998-14.694
	c-4.497-3.299-10.495-3.898-15.593-1.199L365.82,281.99l-70.772-37.186c-5.097-2.7-11.096-2.099-15.893,1.199
	c-4.499,3.299-6.898,8.997-5.698,14.694l13.494,78.569l-57.277,55.779c-3.898,3.897-5.398,9.895-3.898,15.292
	c1.799,5.398,6.598,9.296,12.294,10.197l78.869,11.396l35.388,71.672c2.398,5.097,7.497,8.396,13.494,8.396
	c5.698,0,10.797-3.299,13.195-8.396l35.386-71.672l78.869-11.396c5.698-0.901,10.497-4.799,12.296-10.197
	C507.066,404.941,505.867,398.944,501.668,395.046z"/>
<path style="fill:#FE9923;" d="M505.567,410.339c-1.799,5.398-6.598,9.296-12.296,10.197l-78.869,11.396l-35.386,71.672
	c-2.398,5.097-7.497,8.396-13.195,8.396c-5.997,0-11.096-3.299-13.494-8.396l-35.388-71.672l134.948-185.928
	c4.799,3.299,7.199,8.997,5.998,14.694l-13.495,78.569l57.279,55.779C505.867,398.944,507.066,404.941,505.567,410.339z"/>
<g>
	<circle style="fill:#FEA832;" cx="470.626" cy="197.053" r="14.994"/>
	<circle style="fill:#FEA832;" cx="410.65" cy="77.1" r="14.994"/>
	<path style="fill:#FEA832;" d="M396.409,165.935c0,8.396-6.596,14.994-14.994,14.994h-14.994v14.994
		c0,8.396-6.596,14.994-14.994,14.994c-8.398,0-14.994-6.598-14.994-14.994V180.93h-14.994c-8.398,0-14.994-6.598-14.994-14.994
		c0-8.398,6.596-14.994,14.994-14.994h14.994v-14.994c0-8.398,6.596-14.994,14.994-14.994c8.398,0,14.994,6.596,14.994,14.994
		v14.994h14.994C389.813,150.941,396.409,157.538,396.409,165.935z"/>
</g>
<path style="fill:#FE9923;" d="M396.409,165.935c0,8.396-6.596,14.994-14.994,14.994h-14.994v14.994
	c0,8.396-6.596,14.994-14.994,14.994v-89.965c8.398,0,14.994,6.596,14.994,14.994v14.994h14.994
	C389.813,150.941,396.409,157.538,396.409,165.935z"/>
<path style="fill:#FEA832;" d="M186.491,435.83c0,8.396-6.596,14.994-14.994,14.994h-14.994v14.994
	c0,8.396-6.596,14.994-14.994,14.994s-14.994-6.598-14.994-14.994v-14.994H111.52c-8.398,0-14.994-6.598-14.994-14.994
	c0-8.398,6.596-14.994,14.994-14.994h14.994v-14.994c0-8.398,6.596-14.994,14.994-14.994s14.994,6.596,14.994,14.994v14.994h14.994
	C179.894,420.836,186.491,427.433,186.491,435.83z"/>
<path style="fill:#FE9923;" d="M186.491,435.83c0,8.396-6.596,14.994-14.994,14.994h-14.994v14.994
	c0,8.396-6.596,14.994-14.994,14.994v-89.965c8.398,0,14.994,6.596,14.994,14.994v14.994h14.994
	C179.894,420.836,186.491,427.433,186.491,435.83z"/>
<g>
</g>
<g>
</g>
<g>
</g>
<g>
</g>
<g>
</g>
<g>
</g>
<g>
</g>
<g>
</g>
<g>
</g>
<g>
</g>
<g>
</g>
<g>
</g>
<g>
</g>
<g>
</g>
<g>
</g>
</svg>
