<svg 
 xmlns="http://www.w3.org/2000/svg"
 xmlns:xlink="http://www.w3.org/1999/xlink"
 width="30px" height="38px">
<path fill-rule="evenodd"  fill="rgb(102, 102, 102)"
 d="M15.476,37.508 L14.998,37.991 L14.520,37.508 C13.927,36.911 -0.000,22.786 -0.003,14.799 C-0.000,6.642 6.728,0.003 14.994,0.001 C23.261,0.003 29.989,6.642 29.992,14.799 C29.989,22.785 16.068,36.911 15.476,37.508 ZM14.994,1.321 C7.465,1.324 1.338,7.370 1.335,14.799 C1.338,21.460 12.526,33.510 14.998,36.091 C17.468,33.510 28.651,21.460 28.654,14.799 C28.651,7.370 22.524,1.324 14.994,1.321 ZM14.936,23.520 C10.028,23.520 6.036,19.580 6.036,14.737 C6.036,9.895 10.028,5.955 14.936,5.955 C19.843,5.955 23.836,9.895 23.836,14.737 C23.836,19.580 19.843,23.520 14.936,23.520 ZM14.936,7.276 C10.766,7.276 7.374,10.623 7.374,14.737 C7.374,18.852 10.766,22.199 14.936,22.199 C19.106,22.199 22.498,18.852 22.498,14.737 C22.498,10.623 19.106,7.276 14.936,7.276 Z"/>
</svg>