<svg 
 xmlns="http://www.w3.org/2000/svg"
 xmlns:xlink="http://www.w3.org/1999/xlink"
 width="23px" height="39px">
<path fill-rule="evenodd"  fill="rgb(102, 102, 102)"
 d="M19.217,38.999 L3.780,38.999 C1.686,38.999 -0.010,37.290 -0.010,35.180 L-0.010,3.817 C-0.010,1.709 1.686,-0.001 3.780,-0.001 L19.217,-0.001 C21.310,-0.001 23.007,1.709 23.007,3.817 L23.007,35.180 C23.007,37.290 21.310,38.999 19.217,38.999 ZM21.491,3.817 C21.491,2.554 20.471,1.526 19.217,1.526 L3.780,1.526 C2.526,1.526 1.506,2.554 1.506,3.817 L1.506,35.180 C1.506,36.444 2.526,37.471 3.780,37.471 L19.217,37.471 C20.471,37.471 21.491,36.444 21.491,35.180 L21.491,3.817 ZM3.082,5.983 L19.915,5.983 L19.915,33.019 L3.082,33.019 L3.082,5.983 ZM4.642,31.470 L18.354,31.470 L18.354,7.532 L4.642,7.532 L4.642,31.470 ZM9.194,2.987 L13.820,2.987 L13.820,4.514 L9.194,4.514 L9.194,2.987 ZM11.498,34.500 C11.917,34.500 12.257,34.831 12.257,35.240 C12.257,35.649 11.917,35.981 11.498,35.981 C11.080,35.981 10.740,35.649 10.740,35.240 C10.740,34.831 11.080,34.500 11.498,34.500 Z"/>
</svg>