<svg 
 xmlns="http://www.w3.org/2000/svg"
 xmlns:xlink="http://www.w3.org/1999/xlink"
 width="33px" height="21px">
<path fill-rule="evenodd"  fill="rgb(102, 102, 102)"
 d="M29.179,-0.005 L3.821,-0.005 C1.710,-0.005 -0.000,1.721 -0.000,3.849 L-0.000,17.143 C-0.000,19.272 1.710,20.997 3.820,20.997 L29.179,20.997 C31.289,20.997 33.000,19.272 33.000,17.143 L33.000,3.849 C33.000,1.721 31.289,-0.005 29.179,-0.005 ZM29.179,1.536 C29.399,1.536 29.608,1.578 29.809,1.637 L16.481,11.431 L3.193,1.636 C3.394,1.577 3.601,1.536 3.821,1.536 L29.179,1.536 ZM3.820,19.455 C3.593,19.455 3.378,19.412 3.172,19.350 L15.361,11.054 L14.135,10.069 L1.901,18.400 C1.667,18.039 1.528,17.607 1.528,17.143 L1.527,3.849 C1.527,3.378 1.668,2.940 1.910,2.574 L16.480,13.401 L31.091,2.578 C31.330,2.944 31.471,3.379 31.471,3.849 L31.472,17.143 C31.472,17.607 31.333,18.037 31.100,18.398 L18.838,10.066 L17.611,11.051 L29.831,19.348 C29.623,19.412 29.407,19.455 29.179,19.455 L3.820,19.455 Z"/>
</svg>