<?xml version="1.0" encoding="utf-8"?>
<!-- Generator: Adobe Illustrator 26.2.1, SVG Export Plug-In . SVG Version: 6.00 Build 0)  -->
<svg version="1.1" id="Слой_1" xmlns="http://www.w3.org/2000/svg" xmlns:xlink="http://www.w3.org/1999/xlink" x="0px" y="0px"
	 viewBox="0 0 303.6 112.1" style="enable-background:new 0 0 303.6 112.1;" xml:space="preserve">
<style type="text/css">
	.st0{fill:#FFFFFF;}
</style>
<g>
	<g>
		<g>
			<path class="st0" d="M108,67h14.5v2.8H108V67z M113.4,68.2h3.7v14.3h-3.7V68.2z"/>
			<path class="st0" d="M124.6,67h3.7v15.6h-3.7V67z M126.8,76.4l7.9-9.5h4.7l-12.1,13.3L126.8,76.4z M130.1,74.6l3.2-1.6l6.9,9.5
				h-4.4L130.1,74.6z"/>
			<path class="st0" d="M148.1,67h2.3l7.5,15.6h-4l-4.7-10.7l-4.7,10.7h-4L148.1,67z M144.1,77.2h10.4V80h-10.4V77.2z"/>
			<path class="st0" d="M160.4,67h3.7v15.6h-3.7V67z M162.1,73.3h11.5v2.9h-11.5V73.3z M171.2,67h3.7v15.6h-3.7V67z"/>
			<path class="st0" d="M194.3,82.5h-3.6V70.4l0.3,0.2l-7.3,11.8h-4.6V67h3.6v12.2l-0.3-0.2l7.3-11.9h4.5L194.3,82.5L194.3,82.5z"/>
		</g>
		<g>
			<path class="st0" d="M46.9,43c-0.2,6.8,2.3,13.9,9.8,14.9c7,0.9,11.1-2.5,14.9-8c3.3-4.8,5.6-10.1,8.2-15.2
				c2.4-4.7,5-10.1,9.7-12.9c-2.2-2.2-4.4-4.4-6.6-6.6c-4,7.3-8.5,14.6-11.1,22.6c-2.3,6.9-2.7,16.9,6,19.1c9,2.3,15-6.5,19.1-13.2
				c4.6-7.5,8-15.8,14.1-22.3c-2.5-1.9-5.1-3.9-7.6-5.9c-3.9,8.8-9,18.2-8.2,28.2c1,11.1,11.5,13.2,20.7,11.8
				c9.6-1.5,18.6-5.7,26.2-11.6c6.3-5,17.1-14.8,13.9-23.9c-3.5-10-15-9.8-22.9-5.8c-6.4,3.2-11.1,10.9-13.7,17.4
				c-3.1,7.7-3.5,16.8,4.4,21.7c6.9,4.4,16.6,4,24.3,2.3c18.4-4.2,26.4-21.9,32.5-37.9c1.9-5.1-6.4-8.6-8.9-3.7
				c-5.8,11.6-11.4,23.3-17.2,34.9c-2.3,4.6,4,10.4,7.6,5.9c4.5-5.8,9.2-11.5,14.2-17c2.7-3.1,5.7-6.1,8.7-8.9c1.1-1,2.3-2,3.6-3
				c0.6-0.5,1.4-1,2.1-1.4c1.3-0.6,2.2-0.1,0.3-1.5c-1.6-1.2-1.4-0.3-1.6,0.3c-0.5,1.1-1,2.3-1.6,3.5c-1.3,2.8-2.7,5.7-4,8.5
				c-2.3,4.8-4.9,9.7-6.5,14.9c-1.5,5,4.6,7.7,8.1,4.7c10.3-8.7,17-21.6,28.2-29.4c0.5-0.3,1-0.6,1.5-1c0.2-0.2,0.6-0.3,0.9-0.5
				c1.4-0.6,0.4-1.2-2.7-2.1c-0.5,0.4-0.8,2.2-1,2.6c-1.2,2.9-2.6,5.7-4,8.6c-2.7,5.6-5.5,11.2-7.7,17c-1.6,4.4,3.7,7.1,7.1,5.5
				c16.2-7.7,27-22.4,38.1-36c3.9-4.8-2.9-11.7-6.9-6.9c-6.1,7.6-11.6,15.4-15.6,24.3c-3.9,8.8-7.3,17.8-11.5,26.5
				c-2.8,5.7,4.8,10,8.4,4.9c4.4-6.3,8.8-12.7,13.2-19c2.9-4.1,5.7-8.4,8.6-12.4c2.9-4,6.4-8.2,11.1-9.8c4-1.4,8.3-0.9,10.7,2.9
				c1.3,2.2,0.2,5.1-1,7.5c-4.6,9.3-17.9,10.1-26.7,8c-6.1-1.5-8.6,7.9-2.6,9.4c10.3,2.4,21.2,1.6,30.2-4.4c6.3-4.3,12.5-14,10-22
				c-3.1-9.7-14-13.6-23.2-10.7C240,21,234.1,31.4,228.1,40.1c-5.4,7.7-10.7,15.5-16.1,23.2c2.8,1.6,5.6,3.2,8.4,4.9
				c4.2-8.4,7.5-17.1,11.2-25.7c3.6-8.5,8.6-16,14.4-23.2c-2.3-2.3-4.6-4.6-6.9-6.9c-10.5,13-20.7,27.1-36.2,34.6
				c2.3,1.9,4.8,3.6,7.1,5.5c2.4-6.4,6.2-13.6,9.2-20.1c1.3-2.9,3-5.9,3.6-9c1-5.7-3.1-10.7-9.1-8.9c-7.4,2.2-13.5,9.7-18.4,15.3
				c-5.4,6.1-10.4,12.9-16.6,18.2c2.7,1.5,5.4,3.1,8.1,4.7c1.9-6.2,5.3-12.1,8.1-17.9c2.5-5.4,9-15.5,1.3-19.6
				c-8.1-4.3-17.6,6.4-22.5,11.5c-6.5,6.7-12.4,14-18.2,21.3c2.5,1.9,5.1,3.9,7.6,5.9c5.8-11.6,11.4-23.3,17.2-34.9
				c-3-1.2-5.9-2.5-8.9-3.7c-3.6,9.4-7.6,20.2-15.7,26.6c-3.6,2.8-8.1,4.4-12.6,5.1c-4.2,0.6-13,1.3-15.6-3.2
				c-2.2-3.9,1.9-10.8,4.1-14c3-4.3,5.7-7.8,11.4-8.3c2.3-0.2,4.8,0.8,3.9,3.6c-1,3.1-4.5,6.3-6.9,8.6c-4.8,4.7-10.7,8.4-17.1,10.7
				c-4.4,1.5-17.6,6-17.7-2c-0.1-7.5,4-14.8,6.9-21.5c1.9-4.9-3.7-10.4-7.7-6.1c-4.4,4.7-7.7,10.2-10.9,15.8
				c-3,5.4-5.8,11.4-10.3,15.7c-2.3,2.3-3.4,1.7-3-1.4c0.3-2.8,1.5-5.6,2.6-8.2c2.5-5.7,5.7-11.1,8.7-16.5c2.3-4.2-2.3-9.1-6.6-6.6
				c-8,4.6-12,13.7-16,21.6c-1.9,3.7-3.6,7.6-6.2,10.8c-1.1,1.4-2,2.7-3.9,2.4c-2.5-0.3-2.1-3.1-2.1-5.3
				C56.8,36.8,47.1,36.8,46.9,43L46.9,43z"/>
		</g>
		<g>
			<path class="st0" d="M36.6,56.2c9.8,0,9.8-15.3,0-15.3S26.7,56.2,36.6,56.2L36.6,56.2z"/>
		</g>
	</g>
	<g>
		<path class="st0" d="M32.5,90.5h-2.8v-1.1h7v1.1h-2.8v7.3h-1.4V90.5z"/>
		<path class="st0" d="M37.6,93.6c0-2.7,1.9-4.4,3.8-4.4c2.2,0,3.4,1.5,3.4,4c0,0.3,0,0.6-0.1,0.8h-5.7c0.1,1.8,1.2,2.9,2.8,2.9
			c0.8,0,1.5-0.2,2.1-0.6l0.5,1c-0.7,0.5-1.6,0.9-2.7,0.9C39.5,98,37.6,96.4,37.6,93.6z M43.5,92.9c0-1.7-0.7-2.6-2.1-2.6
			c-1.2,0-2.3,1-2.4,2.6H43.5z"/>
		<path class="st0" d="M46.8,89.4h1.5v3.5h2.3l3.2,4.9h-1.5L50,94h-1.6v3.8h-1.5L46.8,89.4L46.8,89.4z M49.7,93.4l1.1-2.5
			c0.6-1.5,1.3-1.8,2.2-1.8c0.2,0,0.4,0,0.5,0.1l-0.2,1.4c-0.1,0-0.2-0.1-0.2-0.1c-0.4,0-0.8,0.2-1.2,1.1l-0.9,2L49.7,93.4z"/>
		<path class="st0" d="M54.6,93.6c0-2.8,1.9-4.4,4-4.4c1.1,0,1.9,0.5,2.4,1l-0.7,1c-0.5-0.4-1-0.7-1.7-0.7c-1.5,0-2.7,1.3-2.7,3.2
			c0,1.9,1,3.2,2.6,3.2c0.8,0,1.5-0.4,1.9-0.8l0.6,1c-0.7,0.6-1.7,1-2.7,1C56.3,98,54.6,96.4,54.6,93.6z"/>
		<path class="st0" d="M64.8,90.5h-2.8v-1.1h7v1.1h-2.8v7.3h-1.5L64.8,90.5L64.8,90.5z"/>
		<path class="st0" d="M70.8,89.4h1.4v3.5c0,0.9-0.1,2-0.2,3.1h0.1c0.3-0.5,0.8-1.3,1.1-1.8l3.1-4.8h1.3v8.4h-1.4v-3.5
			c0-0.9,0.1-2,0.2-3.1h-0.1c-0.3,0.5-0.8,1.3-1.1,1.8l-3.1,4.8h-1.3V89.4z"/>
		<path class="st0" d="M79.4,97.9l0.2-1.3c0.1,0,0.2,0.1,0.4,0.1c0.6,0,1-0.6,1.1-1.8c0.2-1.8,0.4-3.6,0.6-5.5H87v8.4h-1.5v-7.3
			h-2.6c-0.2,1.5-0.4,3.1-0.6,4.7c-0.2,1.9-1,2.8-2.3,2.8C79.9,98,79.6,98,79.4,97.9z"/>
		<path class="st0" d="M89.8,89.4h1.5v3.1h1.6c2,0,3.3,0.8,3.3,2.7s-1.4,2.7-3.3,2.7h-3L89.8,89.4L89.8,89.4z M92.6,96.7
			c1.5,0,2.1-0.5,2.1-1.5s-0.6-1.5-2.1-1.5h-1.5v3.1H92.6z"/>
		<path class="st0" d="M98.3,89.4h1.5v3.4h4v-3.4h1.5v8.4h-1.5v-3.7h-4v3.7h-1.5V89.4z"/>
		<path class="st0" d="M107.5,95.6c0-1.9,1.6-2.7,5.2-3.1c0-1-0.3-2.1-1.7-2.1c-1,0-1.9,0.5-2.5,0.9l-0.6-1c0.8-0.5,1.9-1.1,3.3-1.1
			c2,0,2.9,1.4,2.9,3.5v5.2h-1.2l-0.1-1h-0.1c-0.8,0.6-1.8,1.2-2.7,1.2C108.5,98,107.5,97.1,107.5,95.6z M112.6,95.7v-2.3
			c-2.8,0.3-3.8,1-3.8,2.1c0,1,0.6,1.4,1.5,1.4C111.2,96.8,111.8,96.4,112.6,95.7z"/>
		<path class="st0" d="M118.8,93.8l1.2,0.4l-2.5,3.6h-1.6L118.8,93.8z M121.4,94.5h-1.5c-1.6,0-3.3-0.7-3.3-2.6s1.5-2.5,3.3-2.5h3
			v8.4h-1.5C121.4,97.8,121.4,94.5,121.4,94.5z M121.4,93.4v-3h-1.3c-1.3,0-2.1,0.4-2.1,1.5c0,1,0.8,1.5,2.1,1.5
			C120.1,93.4,121.4,93.4,121.4,93.4z"/>
		<path class="st0" d="M129.4,100.8h-1.2l-0.2-3.2v-0.9h8.5v0.9l-0.2,3.2h-1.2v-3h-5.7V100.8z M133.8,90.5h-2.7l-0.3,2.8
			c-0.3,3.1-1.2,3.9-2.1,4.1l-0.3-0.8c0.5-0.2,0.8-0.8,1.2-3.6l0.5-3.7h5.2v8h-1.5L133.8,90.5L133.8,90.5z"/>
		<path class="st0" d="M138.2,89.4h1.4v3.5c0,0.9-0.1,2-0.2,3.1h0.1c0.3-0.5,0.8-1.3,1.1-1.8l3.1-4.8h1.3v8.4h-1.3v-3.5
			c0-0.9,0.1-2,0.2-3.1h-0.1c-0.3,0.5-0.8,1.3-1.1,1.8l-3.1,4.8h-1.3L138.2,89.4L138.2,89.4z"/>
		<path class="st0" d="M147.2,96.9l0.6-0.9c0.8,0.6,1.6,0.9,2.4,0.9c1.1,0,2.1-0.6,2.1-1.5s-0.7-1.5-2.1-1.5h-1.1v-1h1
			c1.4,0,2-0.5,2-1.3c0-0.9-0.7-1.3-1.8-1.3c-1,0-1.6,0.2-2.3,0.7l-0.6-1c0.8-0.6,1.7-1,3-1c1.6,0,3.1,0.7,3.1,2.3
			c0,0.8-0.5,1.5-1.4,1.9v0.1c1,0.2,1.8,0.9,1.8,2.1c0,1.5-1.6,2.5-3.4,2.5C149.2,98,148.2,97.7,147.2,96.9z"/>
		<path class="st0" d="M155.3,95.6c0-1.9,1.6-2.7,5.2-3.1c0-1-0.3-2.1-1.7-2.1c-1,0-1.9,0.5-2.5,0.9l-0.6-1c0.8-0.5,1.9-1.1,3.3-1.1
			c2,0,2.9,1.4,2.9,3.5v5.2h-1.2l-0.1-1h-0.1c-0.8,0.6-1.8,1.2-2.7,1.2C156.4,98,155.3,97.1,155.3,95.6z M160.5,95.7v-2.3
			c-2.8,0.3-3.8,1-3.8,2.1c0,1,0.6,1.4,1.5,1.4C159.1,96.8,159.7,96.4,160.5,95.7z"/>
		<path class="st0" d="M164.6,89.4h1.4v3.5c0,0.9-0.1,2-0.2,3.1h0.1c0.3-0.5,0.8-1.3,1.1-1.8l3.1-4.8h1.3v8.4h-1.4v-3.5
			c0-0.9,0.1-2,0.2-3.1h-0.1c-0.3,0.5-0.8,1.3-1.1,1.8l-3.1,4.8h-1.3V89.4z M165.4,85.2h1.1c0,1,0.4,1.8,1.5,1.8s1.5-0.8,1.5-1.8
			h1.1c-0.1,1.4-0.7,2.7-2.7,2.7C166,87.9,165.5,86.6,165.4,85.2z"/>
		<path class="st0" d="M174.4,89.4h1.5v3.4h4v-3.4h1.5v8.4h-1.5v-3.7h-4v3.7h-1.5V89.4z"/>
		<path class="st0" d="M183.4,92.9h4V94h-4V92.9z"/>
		<path class="st0" d="M189.5,89.4h6.7v8.4h-1.5v-7.3h-3.9v7.3h-1.5L189.5,89.4L189.5,89.4z"/>
		<path class="st0" d="M197.8,97.9l0.2-1.3c0.1,0,0.2,0.1,0.4,0.1c0.6,0,1-0.6,1.1-1.8c0.2-1.8,0.4-3.6,0.6-5.5h5.2v8.4h-1.5v-7.3
			h-2.6c-0.2,1.5-0.4,3.1-0.6,4.7c-0.2,1.9-1,2.8-2.3,2.8C198.2,98,198.1,98,197.8,97.9z"/>
		<path class="st0" d="M207.7,95.6c0-1.9,1.6-2.7,5.2-3.1c0-1-0.3-2.1-1.7-2.1c-1,0-1.9,0.5-2.5,0.9l-0.6-1c0.8-0.5,1.9-1.1,3.3-1.1
			c2,0,2.9,1.4,2.9,3.5v5.2h-1.2l-0.1-1h-0.1c-0.8,0.6-1.8,1.2-2.7,1.2C208.7,98,207.7,97.1,207.7,95.6z M212.8,95.7v-2.3
			c-2.8,0.3-3.8,1-3.8,2.1c0,1,0.6,1.4,1.5,1.4C211.4,96.8,212,96.4,212.8,95.7z"/>
		<path class="st0" d="M218.5,90.5h-2.8v-1.1h7v1.1h-2.8v7.3h-1.5L218.5,90.5L218.5,90.5z"/>
		<path class="st0" d="M228.6,98.6v-1.3c-0.5,0.3-1,0.6-1.7,0.6c-1.9,0-3.1-1.6-3.1-4.4c0-2.7,1.5-4.4,3.1-4.4
			c0.6,0,1.2,0.2,1.7,0.6v-1.2v-3.1h1.4v3.1v1.3c0.6-0.4,1.2-0.6,1.8-0.6c1.9,0,3.1,1.7,3.1,4.3c0,2.8-1.5,4.5-3.2,4.5
			c-0.6,0-1.1-0.2-1.7-0.6v1.2v2.7h-1.3V98.6z M228.6,96.2v-5.2c-0.5-0.4-1-0.6-1.5-0.6c-1.1,0-1.9,1.3-1.9,3.2c0,2,0.7,3.2,2,3.2
			C227.8,96.8,228.2,96.7,228.6,96.2z M233.3,93.4c0-1.9-0.6-3.1-1.9-3.1c-0.5,0-1,0.2-1.5,0.6v5.2c0.5,0.5,1,0.6,1.5,0.6
			C232.5,96.8,233.3,95.5,233.3,93.4z"/>
		<path class="st0" d="M236.5,93.6c0-2.8,1.9-4.4,3.9-4.4c2,0,3.9,1.6,3.9,4.4c0,2.7-1.9,4.4-3.9,4.4
			C238.3,98,236.5,96.4,236.5,93.6z M242.8,93.6c0-1.9-1-3.2-2.4-3.2c-1.5,0-2.4,1.3-2.4,3.2c0,1.9,1,3.2,2.4,3.2
			C241.8,96.8,242.8,95.5,242.8,93.6z"/>
		<path class="st0" d="M246.4,89.4h1.2l0.1,1h0.1c0.7-0.6,1.7-1.2,2.7-1.2c2.2,0,3.3,1.7,3.3,4.3c0,2.8-1.7,4.5-3.6,4.5
			c-0.8,0-1.5-0.3-2.3-1v1.5v2.8h-1.5L246.4,89.4L246.4,89.4z M252.3,93.4c0-1.9-0.6-3.1-2.2-3.1c-0.7,0-1.5,0.4-2.3,1.1v4.4
			c0.7,0.6,1.5,0.9,2,0.9C251.2,96.8,252.3,95.5,252.3,93.4z"/>
		<path class="st0" d="M256,89.4h1.6l1.6,4c0.2,0.7,0.5,1.4,0.7,2h0.1c0.2-0.6,0.6-1.4,0.8-2l1.6-4h1.6v8.4h-1.3V94
			c0-0.7,0.1-2,0.2-2.9h-0.1c-0.2,0.6-0.6,1.4-0.8,2l-1.6,3.9h-1l-1.6-3.9c-0.2-0.6-0.6-1.4-0.8-2H257c0.1,0.9,0.2,2.2,0.2,2.9v3.8
			H256V89.4z"/>
		<path class="st0" d="M266.4,95.6c0-1.9,1.6-2.7,5.2-3.1c0-1-0.3-2.1-1.7-2.1c-1,0-1.9,0.5-2.5,0.9l-0.6-1c0.8-0.5,1.9-1.1,3.3-1.1
			c2,0,2.9,1.4,2.9,3.5v5.2h-1.2l-0.1-1h-0.1c-0.8,0.6-1.8,1.2-2.7,1.2C267.5,98,266.4,97.1,266.4,95.6z M271.6,95.7v-2.3
			c-2.8,0.3-3.8,1-3.8,2.1c0,1,0.6,1.4,1.5,1.4C270.1,96.8,270.8,96.4,271.6,95.7z"/>
	</g>
</g>
</svg>
